# xmcd
#
# Track frame offsets:
#	150
#	24542
#	40591
#	68067
#	85991
#	107472
#	128123
#	146625
#	171630
#	191998
#	211022
#	231260
#	253060
#
# Disc length: 3696 seconds
#
# Revision: 0
# Processed by: cddbd v1.5.2PL0 Copyright (c) Steve Scherf et al.
# Submitted via: EasyCDDAExtractor 16.0.1.1
#
DISCID=b80e6e0d
DTITLE=Botos Lajos - A hit jót vár
DYEAR=2011
DGENRE=Gospel
TTITLE0=Mert az Úr oly jó
TTITLE1=Felmagasztallak
TTITLE2=Keneted áradjon
TTITLE3=Jézus hálát adok
TTITLE4=Örömdal
TTITLE5=Megérintett Jézus
TTITLE6=Nem az a lényeg, hogy érezd
TTITLE7=A hit jót vár
TTITLE8=Válaszra várva
TTITLE9=Nevemen hív
TTITLE10=Jön a fény
TTITLE11=Jézus várunk
TTITLE12=Jézus élő remény
EXTD=
EXTT0=
EXTT1=
EXTT2=
EXTT3=
EXTT4=
EXTT5=
EXTT6=
EXTT7=
EXTT8=
EXTT9=
EXTT10=
EXTT11=
EXTT12=
PLAYORDER=
